# xmcd CD database file
#
# Track frame offsets:
#	150
#	22467
#	35873
#	48842
#	65148
#	78376
#	101780
#	114199
#	123981
#	136461
#	154998
#	168596
#	188708
#	197949
#	207337
#	230055
#	240048
#	255319
#	271560
#	315102
#	326984
#	337289
#	340895
#
# Disc length: 4708 seconds
#
# Revision: 0
# Processed by: cddbd v1.5.2PL0 Copyright (c) Steve Scherf et al.
# Submitted via: CDex 1.70beta2
#
DISCID=55126217
DTITLE=JAMES BROWN - Messing With The Blues
DYEAR=2007
DGENRE=Blues
TTITLE0=Like It Is, Like It Was(The Blues)
TTITLE1=Don't Cry Baby
TTITLE2=Caldonia
TTITLE3=Somebody Done Changed The Lock On My Door
TTITLE4=Ain't Nobody Here But Us Chickens
TTITLE5=Home At Last
TTITLE6=I Love You, Yes I Do
TTITLE7=Messing With The Blues
TTITLE8=Waiting In Vain
TTITLE9=That's My Desire
TTITLE10=Blues For My Baby
TTITLE11=Everyday I Have The Blues
TTITLE12=Love Don't Love Nobody
TTITLE13=I'll Go Crazy(Live)
TTITLE14=Goin' Home
TTITLE15=Have Mercy Baby
TTITLE16=Kansas City
TTITLE17=The Bells
TTITLE18=Blues And Pants
TTITLE19=Good Rockin' Tonight
TTITLE20=For You, My Love
TTITLE21=Love Don't Love Nobody(False Start)(Extra)
TTITLE22=Please, Please, Please(Extra)
EXTD=YEAR: 2007
EXTT0=
EXTT1=
EXTT2=
EXTT3=
EXTT4=
EXTT5=
EXTT6=
EXTT7=
EXTT8=
EXTT9=
EXTT10=
EXTT11=
EXTT12=
EXTT13=
EXTT14=
EXTT15=
EXTT16=
EXTT17=
EXTT18=
EXTT19=
EXTT20=
EXTT21=
EXTT22=
PLAYORDER=
